<svg width="511" height="464" viewBox="0 0 511 464" fill="none" xmlns="http://www.w3.org/2000/svg">
<path opacity="0.9" fill-rule="evenodd" clip-rule="evenodd" d="M170.429 0.307272C169.638 0.562103 167.645 0.796271 166.001 0.827838C164.357 0.859405 162.852 1.14351 162.656 1.45918C162.461 1.77485 161.233 2.03313 159.928 2.03313C158.624 2.03313 156.76 2.27246 155.788 2.56517C147.447 5.07446 141.515 7.01553 139.337 7.94647C137.912 8.55543 135.84 9.43643 134.731 9.90362C131.833 11.1261 127.51 13.3301 123.303 15.7309C117.312 19.1493 116.214 19.8357 115.335 20.7116C114.874 21.1713 114.268 21.5472 113.988 21.5472C113.709 21.5472 112.885 22.1338 112.158 22.8512C111.431 23.5681 109.951 24.7785 108.869 25.5413C107.32 26.6324 101.674 31.7537 98.8887 34.5941C93.652 39.9335 89.8208 44.1119 89.8208 44.4844C89.8208 44.7449 89.0435 45.7872 88.0935 46.8008C87.1435 47.8144 86.3662 48.863 86.3662 49.131C86.3662 49.399 85.7184 50.264 84.9268 51.0532C84.1351 51.8423 83.4873 52.7687 83.4873 53.1119C83.4873 53.4551 82.9691 54.2908 82.3358 54.968C81.7024 55.6459 81.1842 56.5389 81.1842 56.9533C81.1842 57.3671 80.9251 57.7057 80.6084 57.7057C80.2918 57.7057 80.0327 58.2011 80.0327 58.806C80.0327 59.4109 79.8283 59.9918 79.5784 60.0974C79.0343 60.3264 73.6318 71.2698 72.2632 74.9155C69.99 80.9717 67.7963 88.293 66.7576 93.2903C66.3972 95.0265 65.8675 97.4801 65.5813 98.7428C64.2996 104.396 63.2517 145.997 64.3515 147.552C64.5841 147.881 65.9406 148.518 67.3656 148.967C70.4155 149.929 80.4035 154.99 81.593 156.176C82.0467 156.628 82.6467 156.998 82.9265 156.998C83.2063 156.998 84.0297 157.58 84.7569 158.291C85.4835 159.002 87.2443 160.487 88.6693 161.59C92.0687 164.221 93.8513 165.989 93.8513 166.728C93.8513 167.058 94.8877 168.392 96.1544 169.693C97.4211 170.994 98.4575 172.359 98.4575 172.724C98.4575 173.09 98.9757 173.761 99.609 174.216C100.242 174.672 100.761 175.503 100.761 176.065C100.761 176.626 101.02 177.086 101.336 177.086C101.653 177.086 101.912 177.603 101.912 178.234C101.912 178.865 102.171 179.382 102.488 179.382C102.805 179.382 103.064 179.899 103.064 180.53C103.064 181.161 103.323 181.678 103.639 181.678C103.956 181.678 104.215 182.194 104.215 182.826C104.215 183.457 104.474 183.974 104.791 183.974C105.108 183.974 105.367 184.604 105.367 185.375C105.367 186.145 105.626 186.935 105.943 187.13C106.259 187.325 106.518 188.1 106.518 188.852C106.518 189.604 106.749 190.361 107.031 190.535C107.312 190.708 107.708 191.821 107.909 193.008C108.111 194.194 108.561 196.586 108.909 198.322C109.257 200.058 109.649 209.55 109.78 219.415L110.02 237.35H111.689C112.608 237.35 113.52 237.092 113.715 236.776C113.951 236.396 161.979 236.202 255.932 236.202C349.884 236.202 397.913 236.396 398.148 236.776C398.344 237.092 399.255 237.35 400.174 237.35H401.844L402.084 219.415C402.306 202.696 402.608 198.783 404.128 192.87C404.452 191.607 404.89 189.86 405.101 188.987C405.311 188.115 405.711 187.26 405.99 187.088C406.269 186.916 406.497 186.145 406.497 185.375C406.497 184.604 406.756 183.974 407.073 183.974C407.389 183.974 407.648 183.457 407.648 182.826C407.648 182.194 407.908 181.678 408.224 181.678C408.541 181.678 408.8 181.161 408.8 180.53C408.8 179.899 409.059 179.382 409.376 179.382C409.692 179.382 409.952 178.865 409.952 178.234C409.952 177.603 410.211 177.086 410.527 177.086C410.844 177.086 411.103 176.626 411.103 176.065C411.103 175.503 411.621 174.672 412.255 174.216C412.888 173.761 413.406 173.09 413.406 172.724C413.406 172.359 414.443 170.994 415.709 169.693C416.976 168.392 418.012 167.07 418.012 166.755C418.012 166.439 418.271 166.181 418.588 166.181C418.905 166.181 419.164 165.794 419.164 165.32C419.164 164.847 419.385 164.459 419.656 164.459C419.926 164.459 420.799 163.878 421.595 163.168C422.391 162.457 424.143 160.889 425.487 159.682C426.831 158.475 428.549 157.208 429.305 156.864C430.061 156.521 430.679 156.068 430.679 155.859C430.679 155.314 442.011 149.755 444.954 148.856C446.769 148.302 447.519 147.732 447.778 146.706C447.971 145.939 447.965 136.899 447.763 126.618C447.17 96.3397 444.879 85.2361 435.086 65.167C433.777 62.4838 432.509 60.2024 432.268 60.0974C432.028 59.9918 431.831 59.4109 431.831 58.806C431.831 58.2005 431.604 57.7057 431.325 57.7057C431.047 57.7057 430.497 56.9309 430.104 55.9839C429.71 55.0369 429.161 54.2621 428.882 54.2621C428.604 54.2621 428.376 53.8632 428.376 53.3753C428.376 52.8875 427.729 51.8423 426.937 51.0532C426.145 50.264 425.497 49.3807 425.497 49.0897C425.497 48.7987 424.591 47.6571 423.482 46.5523C422.374 45.4474 421.467 44.2714 421.467 43.9397C421.467 43.6074 419.848 41.6978 417.868 39.6965C415.889 37.6946 413.855 35.5687 413.347 34.9718C411.854 33.2161 403.296 25.465 402.134 24.8164C401.546 24.4893 400.463 23.6197 399.725 22.884C398.987 22.1487 398.177 21.5472 397.924 21.5472C397.671 21.5472 396.711 20.9021 395.791 20.113C394.87 19.3244 393.936 18.6787 393.715 18.6781C393.493 18.6781 392.198 17.9302 390.836 17.0165C388.439 15.4083 381.255 11.6874 377.132 9.91855C376.024 9.44332 373.951 8.55543 372.526 7.94647C370.349 7.01553 364.416 5.07446 356.076 2.56517C355.103 2.27246 353.276 2.03313 352.017 2.03313C350.757 2.03313 349.479 1.79781 349.179 1.50969C348.877 1.22157 347.077 0.806603 345.177 0.586783C340.253 0.0174298 172.165 -0.251176 170.429 0.307272ZM39.7285 163.866C39.2534 164.183 37.7789 164.446 36.4517 164.451C35.1246 164.455 33.8786 164.718 33.6828 165.033C33.4871 165.349 32.5652 165.607 31.6336 165.607C30.702 165.607 29.9403 165.866 29.9403 166.181C29.9403 166.497 29.4221 166.755 28.7887 166.755C28.1554 166.755 27.6372 167.013 27.6372 167.329C27.6372 167.645 27.119 167.903 26.4856 167.903C25.8523 167.903 25.3341 168.161 25.3341 168.477C25.3341 168.793 24.8159 169.051 24.1825 169.051C23.5492 169.051 23.031 169.309 23.031 169.625C23.031 169.941 22.5698 170.199 22.0067 170.199C21.443 170.199 20.6087 170.715 20.1521 171.347C19.6955 171.978 18.9729 172.495 18.5463 172.495C17.5283 172.495 9.21239 180.984 9.21239 182.023C9.21239 182.465 8.97057 182.826 8.6752 182.826C8.37982 182.826 7.97448 183.34 7.77411 183.97C7.57374 184.6 7.10103 185.439 6.72447 185.835C3.80587 188.905 0 201.983 0 208.94C0 214.918 3.76096 229.315 5.32246 229.315C5.56199 229.315 5.75775 229.832 5.75775 230.463C5.75775 231.094 5.98518 231.611 6.26385 231.611C6.54195 231.611 7.09182 232.386 7.48507 233.333C7.87832 234.28 8.41092 235.055 8.66771 235.055C8.92451 235.055 9.30049 235.576 9.50373 236.213C9.94017 237.584 16.3606 244.238 17.2468 244.238C17.5836 244.238 18.6729 245.013 19.6667 245.96C20.6611 246.907 21.8247 247.681 22.2525 247.681C22.6809 247.681 23.031 247.94 23.031 248.255C23.031 248.571 23.5492 248.829 24.1825 248.829C24.8159 248.829 25.3341 249.088 25.3341 249.403C25.3341 249.719 25.8523 249.977 26.4856 249.977C27.119 249.977 27.6372 250.179 27.6372 250.426C27.6372 250.673 28.8682 251.206 30.3721 251.612C31.876 252.018 33.5567 252.59 34.1066 252.885C34.6565 253.18 36.017 253.421 37.1294 253.421C38.2424 253.421 39.1527 253.679 39.1527 253.995C39.1527 254.31 39.6709 254.569 40.3042 254.569C40.9376 254.569 41.4558 254.827 41.4558 255.143C41.4558 255.458 41.7822 255.717 42.1807 255.717C42.8871 255.717 43.8274 256.894 45.3256 259.656C45.9105 260.735 46.0706 274.651 46.104 327.382C46.1437 389.534 46.2099 393.86 47.1548 395.472C48.7301 398.162 51.4161 399.645 55.4385 400.048C57.4065 400.246 149.054 400.329 259.099 400.235C444.794 400.076 459.305 399.995 460.908 399.105C462.664 398.129 463.789 396.947 465.082 394.719C465.646 393.746 465.802 379.188 465.802 327.246C465.802 274.561 465.953 260.736 466.538 259.656C468.036 256.894 468.977 255.717 469.683 255.717C470.081 255.717 470.408 255.458 470.408 255.143C470.408 254.827 470.926 254.569 471.559 254.569C472.193 254.569 472.711 254.31 472.711 253.995C472.711 253.679 473.519 253.421 474.507 253.421C476.449 253.421 483.816 251.115 484.13 250.409C484.236 250.171 484.819 249.977 485.426 249.977C486.033 249.977 486.53 249.719 486.53 249.403C486.53 249.088 487.048 248.829 487.681 248.829C488.314 248.829 488.833 248.571 488.833 248.255C488.833 247.94 489.294 247.681 489.857 247.681C490.421 247.681 491.255 247.165 491.712 246.533C492.168 245.902 492.853 245.386 493.234 245.386C494.22 245.386 501.882 237.714 502.344 236.264C502.556 235.599 502.939 235.055 503.196 235.055C503.453 235.055 503.985 234.28 504.379 233.333C504.772 232.386 505.322 231.611 505.6 231.611C505.878 231.611 506.106 231.094 506.106 230.463C506.106 229.832 506.302 229.315 506.541 229.315C507.03 229.315 507.69 227.853 509.652 222.428C510.866 219.068 511 217.728 511 208.94C511 200.152 510.866 198.812 509.652 195.452C507.69 190.027 507.03 188.565 506.541 188.565C506.302 188.565 506.106 188.049 506.106 187.417C506.106 186.786 505.878 186.269 505.6 186.269C505.322 186.269 504.772 185.494 504.379 184.547C503.985 183.6 503.453 182.826 503.196 182.826C502.939 182.826 502.563 182.304 502.36 181.667C501.925 180.301 495.505 173.643 494.622 173.643C494.288 173.643 494.015 173.384 494.015 173.069C494.015 172.753 493.683 172.495 493.278 172.495C492.873 172.495 492.168 171.978 491.712 171.347C491.255 170.715 490.421 170.199 489.857 170.199C489.294 170.199 488.833 169.941 488.833 169.625C488.833 169.309 488.314 169.051 487.681 169.051C487.048 169.051 486.53 168.793 486.53 168.477C486.53 168.161 486.011 167.903 485.378 167.903C484.745 167.903 484.226 167.645 484.226 167.329C484.226 167.013 483.708 166.755 483.075 166.755C482.442 166.755 481.923 166.497 481.923 166.181C481.923 165.866 481.198 165.607 480.311 165.607C479.425 165.607 478.453 165.374 478.152 165.089C476.307 163.34 453.71 163.34 453.71 165.089C453.71 165.374 452.933 165.607 451.983 165.607C451.033 165.607 450.256 165.866 450.256 166.181C450.256 166.497 449.608 166.755 448.816 166.755C448.025 166.755 447.377 167.013 447.377 167.329C447.377 167.645 446.859 167.903 446.225 167.903C445.592 167.903 445.074 168.098 445.074 168.337C445.074 168.576 444.232 169.142 443.203 169.596C442.173 170.05 440.829 170.888 440.215 171.458C439.601 172.028 438.884 172.495 438.622 172.495C437.838 172.495 429.528 181.024 429.528 181.829C429.528 182.238 429.01 182.944 428.376 183.4C427.743 183.855 427.225 184.665 427.225 185.2C427.225 185.736 427.03 186.26 426.793 186.365C426.171 186.641 423.77 191.394 423.77 192.35C423.77 192.794 423.511 193.157 423.194 193.157C422.878 193.157 422.619 193.931 422.619 194.878C422.619 195.825 422.359 196.6 422.043 196.6C421.726 196.6 421.467 197.892 421.467 199.47C421.467 201.048 421.208 202.34 420.891 202.34C420.511 202.34 420.315 222.524 420.315 261.743C420.315 300.962 420.12 321.146 419.74 321.146C419.423 321.146 419.164 321.663 419.164 322.294C419.164 322.925 418.905 323.442 418.588 323.442C418.271 323.442 418.012 323.778 418.012 324.189C418.012 324.599 416.84 325.503 415.406 326.198L412.799 327.46H255.932H99.0643L96.4578 326.198C95.0241 325.503 93.8513 324.599 93.8513 324.189C93.8513 323.778 93.5922 323.442 93.2755 323.442C92.9588 323.442 92.6997 322.925 92.6997 322.294C92.6997 321.663 92.4406 321.146 92.1239 321.146C91.7439 321.146 91.5482 300.962 91.5482 261.743C91.5482 222.524 91.3524 202.34 90.9724 202.34C90.6557 202.34 90.3966 201.048 90.3966 199.47C90.3966 197.892 90.1375 196.6 89.8208 196.6C89.5042 196.6 89.2451 195.825 89.2451 194.878C89.2451 193.931 88.986 193.157 88.6693 193.157C88.3526 193.157 88.0935 192.794 88.0935 192.35C88.0935 191.394 85.6925 186.641 85.0707 186.365C84.8335 186.26 84.6389 185.736 84.6389 185.2C84.6389 184.665 84.1207 183.855 83.4873 183.4C82.854 182.944 82.3358 182.238 82.3358 181.829C82.3358 181.024 74.0256 172.495 73.2414 172.495C72.9794 172.495 72.2626 172.028 71.6488 171.458C71.0345 170.888 69.69 170.05 68.6611 169.596C67.6322 169.142 66.7899 168.576 66.7899 168.337C66.7899 168.098 66.2717 167.903 65.6383 167.903C65.005 167.903 64.4868 167.645 64.4868 167.329C64.4868 167.013 63.839 166.755 63.0473 166.755C62.2556 166.755 61.6079 166.497 61.6079 166.181C61.6079 165.866 60.8306 165.607 59.8806 165.607C58.9305 165.607 58.1532 165.374 58.1532 165.089C58.1532 164 41.2128 162.875 39.7285 163.866ZM114.901 255.32C112.961 256.507 111.125 258.501 111.125 259.421C111.125 259.909 110.865 260.308 110.549 260.308C110.174 260.308 109.973 268.821 109.973 284.701V309.093H255.932H401.891V284.701C401.891 268.821 401.69 260.308 401.315 260.308C400.998 260.308 400.739 259.909 400.739 259.421C400.739 258.273 398.175 255.717 397.022 255.717C396.533 255.717 396.133 255.458 396.133 255.143C396.133 254.248 116.364 254.425 114.901 255.32ZM73.261 440.957L73.4113 463.771L79.0251 463.936C84.3423 464.091 84.6389 464.038 84.6389 462.931C84.6389 462.288 84.898 461.763 85.2146 461.763C85.5313 461.763 85.7904 461.003 85.7904 460.075C85.7904 459.146 86.0495 458.227 86.3662 458.032C86.6829 457.837 86.942 456.789 86.942 455.702C86.942 454.616 87.2011 453.727 87.5177 453.727C87.8344 453.727 88.0935 452.968 88.0935 452.039C88.0935 451.111 88.3526 450.192 88.6693 449.997C88.986 449.802 89.2451 448.754 89.2451 447.667C89.2451 446.581 89.5042 445.692 89.8208 445.692C90.1375 445.692 90.3966 444.917 90.3966 443.97C90.3966 443.023 90.6557 442.249 90.9724 442.249C91.2891 442.249 91.5482 441.215 91.5482 439.953C91.5482 438.69 91.8073 437.657 92.1239 437.657C92.4406 437.657 92.6997 436.882 92.6997 435.935C92.6997 434.988 92.9588 434.213 93.2755 434.213C93.5922 434.213 93.8513 433.18 93.8513 431.918C93.8513 430.655 94.1104 429.622 94.427 429.622C94.7437 429.622 95.0028 428.847 95.0028 427.9C95.0028 426.953 95.2619 426.178 95.5786 426.178C95.8953 426.178 96.1544 425.145 96.1544 423.882C96.1544 422.62 96.4135 421.587 96.7301 421.587C97.0468 421.587 97.3059 420.812 97.3059 419.865V418.143H85.2083H73.1101L73.261 440.957ZM414.558 419.865C414.558 420.812 414.817 421.587 415.134 421.587C415.45 421.587 415.709 422.62 415.709 423.882C415.709 425.145 415.968 426.178 416.285 426.178C416.602 426.178 416.861 426.953 416.861 427.9C416.861 428.847 417.12 429.622 417.437 429.622C417.753 429.622 418.012 430.655 418.012 431.918C418.012 433.18 418.271 434.213 418.588 434.213C418.905 434.213 419.164 434.988 419.164 435.935C419.164 436.882 419.423 437.657 419.74 437.657C420.056 437.657 420.315 438.69 420.315 439.953C420.315 441.215 420.575 442.249 420.891 442.249C421.208 442.249 421.467 443.023 421.467 443.97C421.467 444.917 421.726 445.692 422.043 445.692C422.359 445.692 422.619 446.581 422.619 447.667C422.619 448.754 422.878 449.802 423.194 449.997C423.511 450.192 423.77 451.111 423.77 452.039C423.77 452.968 424.029 453.727 424.346 453.727C424.663 453.727 424.922 454.616 424.922 455.702C424.922 456.789 425.181 457.837 425.497 458.032C425.814 458.227 426.073 459.146 426.073 460.075C426.073 461.003 426.332 461.763 426.649 461.763C426.966 461.763 427.225 462.288 427.225 462.931C427.225 464.038 427.521 464.091 432.839 463.936L438.452 463.771L438.603 440.957L438.754 418.143H426.655H414.558V419.865Z" fill="#DBDCDC"/>
</svg>
