<svg width="140" height="66" viewBox="0 0 140 66" fill="none" xmlns="http://www.w3.org/2000/svg">
<g id="BELKADESIGN_l2 1">
<g id="g10">
<g id="g12">
<path id="path14" fill-rule="evenodd" clip-rule="evenodd" d="M35.5712 1C40.2676 10.8488 36.1275 32.2512 25.3434 31.8035C12.6543 31.2767 8.33126 34.5922 9.06194 39.448C9.79309 44.3034 18.787 46.345 24.4009 44.4697C30.0723 42.5764 33.4667 39.1145 37.2765 31.9751L38.25 34.7301C38.25 34.7301 45.2163 37.172 44.9724 39.2383C44.7286 41.3045 37.207 42.1332 38.0067 44.7165C38.8068 47.2992 48.9996 44.4069 49 46.8516C49 49.2969 33.8405 48.2378 25.7957 50.0537C17.7509 51.8702 7.11333 62.4513 4.95682 60.8321C2.79981 59.214 10.7137 56.322 10.1054 48.5736C9.49773 40.8247 -0.0518774 36.142 1.0956 29.7025C2.24307 23.2627 8.20382 18.2173 16.7274 17.2185C25.25 16.2197 31.7095 9.02337 35.5712 1Z" fill="#FFC401"/>
<path id="path16" d="M35.5712 1C40.2676 10.8488 36.1275 32.2512 25.3434 31.8035C12.6543 31.2767 8.33126 34.5922 9.06194 39.448C9.79309 44.3034 18.787 46.345 24.4009 44.4697C30.0723 42.5764 33.4667 39.1145 37.2765 31.9751L38.25 34.7301C38.25 34.7301 45.2163 37.172 44.9724 39.2383C44.7286 41.3045 37.207 42.1332 38.0067 44.7165C38.8068 47.2992 48.9996 44.4069 49 46.8516C49 49.2969 33.8405 48.2378 25.7957 50.0537C17.7509 51.8702 7.11333 62.4513 4.95682 60.8321C2.79981 59.214 10.7137 56.322 10.1054 48.5736C9.49773 40.8247 -0.0518774 36.142 1.0956 29.7025C2.24307 23.2627 8.20382 18.2173 16.7274 17.2185C25.25 16.2197 31.7095 9.02337 35.5712 1Z" stroke="#FFC401" stroke-width="0.666707" stroke-miterlimit="2.61313"/>
<path id="path20" d="M98 45.7931C98 46.7848 97.7382 47.6767 97.2152 48.4694C96.6962 49.2621 95.9311 49.8822 94.9235 50.3299C93.9166 50.7782 92.7205 50.9965 91.3434 51C90.587 51.002 89.0941 50.7711 88.3976 50.462C86.1787 49.6544 87.4166 46.4512 89.7859 47.6129C91.0486 48.2395 92.8466 48.065 93.9923 47.2274C94.8946 46.5683 94.9256 45.6007 94.1427 44.8239C93.8032 44.4834 93.3619 44.2227 92.8237 44.0432C92.2883 43.8633 91.5661 43.6713 90.6683 43.4689C89.4662 43.1932 88.4546 42.8676 87.6469 42.5002C86.8345 42.1283 86.1905 41.6233 85.7142 40.9837C85.2379 40.3445 85 39.5518 85 38.5986C85 37.6947 85.2496 36.8905 85.7533 36.1861C86.2566 35.4856 86.9865 34.9457 87.9397 34.5663C88.8917 34.1879 90.0126 34 91.3008 34C92.3275 34 93.2176 34.1261 93.971 34.3754C94.7208 34.6282 95.345 34.9612 95.8411 35.3744C96.3333 35.7878 96.6962 36.2244 96.9264 36.6802C97.1526 37.1358 97.2701 37.5841 97.2701 38.0163C97.2701 38.4106 97.1251 38.7711 96.8405 39.0887C96.5554 39.4067 96.1965 39.5633 95.771 39.5633C95.3806 39.5633 95.0878 39.4676 94.885 39.2801C94.6816 39.0887 94.463 38.7746 94.2288 38.3418C93.9202 37.7216 93.5571 37.2355 93.1277 36.8871C92.7022 36.5385 92.0155 36.3661 91.0664 36.3661C90.192 36.3661 89.4814 36.5541 88.9467 36.9329C88.4078 37.3123 88.1389 37.7635 88.1389 38.296C88.1389 38.6255 88.2283 38.9087 88.4118 39.1499C88.5954 39.3873 88.8491 39.5937 89.1693 39.7661C89.4891 39.9387 89.8133 40.0723 90.1412 40.172C90.4691 40.2677 91.012 40.4094 91.7653 40.5972C92.7104 40.8151 93.5688 41.0525 94.3339 41.3172C95.0995 41.5774 95.7512 41.895 96.2899 42.2705C96.8288 42.6419 97.2461 43.1164 97.5471 43.6873C97.8475 44.2611 98 44.962 98 45.7931Z" fill="#040307"/>
<path id="path22" fill-rule="evenodd" clip-rule="evenodd" d="M80.5 35C81.3283 35 82 35.6717 82 36.5001C82 37.3284 81.3283 38 80.5 38C79.6712 38 79 37.3284 79 36.5001C79 35.6717 79.6712 35 80.5 35Z" fill="#D1FF27"/>
<path id="path24" fill-rule="evenodd" clip-rule="evenodd" d="M80.5 35C81.3283 35 82 35.6717 82 36.5001C82 37.3284 81.3283 38 80.5 38C79.6712 38 79 37.3284 79 36.5001C79 35.6717 79.6712 35 80.5 35ZM81.1555 35.8445L81.1545 35.8454C80.9871 35.6784 80.7555 35.5747 80.5 35.5747C80.2437 35.5747 80.0111 35.6779 79.8445 35.8445C79.678 36.0116 79.5747 36.2436 79.5747 36.5001C79.5747 36.7555 79.6785 36.9876 79.8455 37.1546L79.8445 37.1555C80.0111 37.3221 80.2437 37.4253 80.5 37.4253C80.7555 37.4253 80.9871 37.3216 81.1545 37.1546C81.3215 36.9876 81.4253 36.7555 81.4253 36.5001C81.4253 36.2436 81.322 36.0116 81.1555 35.8445Z" fill="#D1FF27"/>
<path id="path26" d="M130.412 35.9987L136.666 45.4612V40.8057C136.666 39.8908 137.403 39.149 138.318 39.1405L138.333 39.14H138.341H138.356C138.522 39.14 138.68 39.1664 138.829 39.2153L138.844 39.2203L138.848 39.2213C139.517 39.4381 140 40.0658 140 40.8057V49.3343C140 50.2546 139.253 51 138.333 51H138.084C137.785 51 137.517 50.9581 137.275 50.8698C137.038 50.7856 136.811 50.648 136.605 50.4641C136.394 50.2766 136.202 50.0582 136.022 49.8055C135.842 49.5566 135.662 49.3 135.482 49.0398L129.335 39.6261V49.3343C129.335 50.0273 128.911 50.6211 128.309 50.8719L128.291 50.8799L128.278 50.8849L128.273 50.8868C128.126 50.9472 127.966 50.9835 127.795 50.9955L127.793 50.996L127.753 50.998L127.752 50.9985L127.731 50.999L127.711 50.9995L127.71 51H127.689H127.667C127.364 51 127.098 50.9333 126.873 50.7991L126.859 50.7916C126.347 50.5075 126 49.9615 126 49.3343V35.6657C126 34.7459 126.747 34 127.667 34H128.058C128.361 34 128.618 34.0498 128.829 34.1455C129.043 34.2448 129.231 34.3754 129.392 34.5399C129.553 34.7044 129.718 34.9148 129.886 35.1795C130.055 35.4398 130.231 35.7115 130.412 35.9987Z" fill="#231F20"/>
<path id="path28" d="M101.014 48.947L101 40.6853C101 39.7547 101.668 39 102.493 39C103.318 39 103.986 39.7547 103.986 40.6853L104 48.947C104.001 49.6365 103.859 50.148 103.581 50.489C103.303 50.8295 102.939 51 102.493 51C102.064 51 101.71 50.8295 101.433 50.485C101.155 50.14 101.015 49.6285 101.014 48.947Z" fill="#231F20"/>
<path id="path30" d="M73.4161 37.3312V40.3909H80.2208C80.2623 40.3879 80.3036 40.3864 80.3456 40.3864C81.2367 40.3864 81.9672 41.051 82.0465 41.8994L82.048 41.9159L82.0496 41.9329L82.0506 41.9493L82.0517 41.9663L82.0522 41.9833L82.0531 42.0007V42.0092L82.0536 42.0176V42.0346V42.0521V42.0694V42.0869V42.0934L82.0531 42.1039L82.0522 42.1209V42.1343L82.0517 42.1379L82.0506 42.1547L82.0496 42.1717V42.1747L82.048 42.1887L82.0465 42.2051C81.9718 43.0138 81.3026 43.6554 80.4688 43.7137V43.7222H73.4161V47.6686H81.2919C82.1349 47.6686 82.8348 48.2644 82.9743 49.0477L82.977 49.0646L82.98 49.0811V49.0821L82.9826 49.099L82.9851 49.117L82.9861 49.1225L82.9877 49.1339L82.9898 49.1519L82.9907 49.1643L82.9918 49.1693L82.9933 49.1873L82.9949 49.2053V49.2067L82.9963 49.2237L82.9974 49.2422V49.2486L82.9984 49.26L82.999 49.2914L82.9995 49.2969L83 49.3159V49.3343V49.3528L82.9995 49.3707L82.999 49.3777L82.9984 49.4062L82.9974 49.4201V49.424L82.9963 49.4415L82.9949 49.459V49.4625L82.9933 49.4765L82.9918 49.4939C82.9089 50.3389 82.1804 51 81.2919 51H71.708C70.7642 51 70 50.2546 70 49.3343V48.6035V43.7222V40.3909V36.4274V35.6657C70 34.7459 70.7642 34 71.708 34H76.5199C77.4401 34 78.1902 34.7104 78.2259 35.5993L78.227 35.6228L78.2275 35.6322V35.6657V35.699L78.227 35.7086L78.2259 35.7319C78.1902 36.6214 77.4401 37.3312 76.5199 37.3312H73.4161Z" fill="#231F20"/>
<path id="path32" d="M56.2025 37.2161V47.7834H58.833C59.3822 47.7834 59.8169 47.7679 60.1293 47.7376C60.4415 47.7071 60.7661 47.6343 61.1013 47.5156C61.4369 47.393 61.7268 47.2245 61.9705 47.0106C63.0805 46.0683 63.637 44.7856 63.637 42.4808C63.637 40.857 63.3927 39.8968 62.9047 39.0887C62.4169 38.281 61.8146 37.7675 61.1013 37.5457C60.3844 37.3273 59.5186 37.2161 58.5089 37.2161H56.2025ZM55.0319 34H59.3553C60.4802 34 61.4448 34.1036 62.249 34.3141C63.0572 34.5244 63.7854 34.9188 64.4412 35.4931C66.129 36.921 66.986 39.475 66.9998 42.5002C67.0043 43.4869 66.9149 44.6211 66.7441 45.4367C66.573 46.2523 66.3053 46.9877 65.9509 47.6422C65.5925 48.2968 65.1352 48.8826 64.5748 49.3997C64.1365 49.794 63.6559 50.1121 63.1336 50.3493C62.6114 50.5907 62.051 50.7592 61.4523 50.8549C60.8541 50.9501 60.1744 51 59.4238 51H55.1004C54.4987 51 54.0445 50.9082 53.7357 50.7243C53.4304 50.5408 53.2323 50.2841 53.1409 49.951C53.0456 49.618 53 49.1853 53 48.6569V36.041C53 35.3252 53.1599 34.8042 53.48 34.4821C53.8003 34.1606 54.319 34 55.0319 34Z" fill="#231F20"/>
<path id="path34" fill-rule="evenodd" clip-rule="evenodd" d="M102.5 35C103.329 35 104 35.6717 104 36.5001C104 37.3284 103.329 38 102.5 38C101.672 38 101 37.3284 101 36.5001C101 35.6717 101.672 35 102.5 35Z" fill="#FFC401"/>
<path id="path36" fill-rule="evenodd" clip-rule="evenodd" d="M102.5 35C103.329 35 104 35.6717 104 36.5001C104 37.3284 103.329 38 102.5 38C101.672 38 101 37.3284 101 36.5001C101 35.6717 101.672 35 102.5 35ZM103.156 35.8445L103.155 35.8454C102.988 35.6784 102.755 35.5747 102.5 35.5747C102.244 35.5747 102.012 35.6779 101.844 35.8445C101.678 36.0116 101.575 36.2436 101.575 36.5001C101.575 36.7555 101.678 36.9876 101.845 37.1546L101.844 37.1555C102.012 37.3221 102.244 37.4253 102.5 37.4253C102.755 37.4253 102.988 37.3216 103.155 37.1546C103.322 36.9876 103.425 36.7555 103.425 36.5001C103.425 36.2436 103.322 36.0116 103.156 35.8445Z" fill="#FFC401"/>
<path id="path38" fill-rule="evenodd" clip-rule="evenodd" d="M138.5 35C139.329 35 140 35.6717 140 36.5001C140 37.3284 139.329 38 138.5 38C137.671 38 137 37.3284 137 36.5001C137 35.6717 137.671 35 138.5 35Z" fill="#62CED6"/>
<path id="path40" fill-rule="evenodd" clip-rule="evenodd" d="M138.5 35C139.329 35 140 35.6717 140 36.5001C140 37.3284 139.329 38 138.5 38C137.671 38 137 37.3284 137 36.5001C137 35.6717 137.671 35 138.5 35ZM139.155 35.8445L139.154 35.8454C138.987 35.6784 138.755 35.5747 138.5 35.5747C138.243 35.5747 138.012 35.6779 137.845 35.8445C137.678 36.0116 137.575 36.2436 137.575 36.5001C137.575 36.7555 137.678 36.9876 137.845 37.1546V37.1555C138.012 37.3221 138.243 37.4253 138.5 37.4253C138.755 37.4253 138.987 37.3216 139.154 37.1546C139.322 36.9876 139.425 36.7555 139.425 36.5001C139.425 36.2436 139.322 36.0116 139.155 35.8445Z" fill="#62CED6"/>
<path id="path42" fill-rule="evenodd" clip-rule="evenodd" d="M115.5 43C116.328 43 117 43.6717 117 44.5C117 45.3288 116.328 46 115.5 46C114.672 46 114 45.3288 114 44.5C114 43.6717 114.672 43 115.5 43Z" fill="#FFFF01"/>
<path id="path44" fill-rule="evenodd" clip-rule="evenodd" d="M115.5 43C116.328 43 117 43.6717 117 44.5C117 45.3288 116.328 46 115.5 46C114.672 46 114 45.3288 114 44.5C114 43.6717 114.672 43 115.5 43ZM116.156 43.8445L116.155 43.8455C115.988 43.6783 115.755 43.5747 115.5 43.5747C115.244 43.5747 115.011 43.678 114.844 43.8445C114.678 44.0115 114.575 44.2436 114.575 44.5C114.575 44.7555 114.678 44.9875 114.845 45.1545L114.844 45.1555C115.011 45.322 115.244 45.4253 115.5 45.4253C115.755 45.4253 115.988 45.3215 116.155 45.1545C116.322 44.9875 116.425 44.7555 116.425 44.5C116.425 44.2436 116.322 44.0115 116.156 43.8445Z" fill="#FFFF01"/>
<path id="path46" fill-rule="evenodd" clip-rule="evenodd" d="M123 47.1905V47.3935C123 47.4813 122.993 47.567 122.98 47.6513C122.96 47.8626 122.925 48.0446 122.875 48.1937C122.791 48.4454 122.637 48.6723 122.41 48.8712C122.183 49.0746 121.894 49.2695 121.543 49.457C120.531 49.9934 119.568 50.3838 118.63 50.6326C117.692 50.8773 116.668 51 115.562 51C114.273 51 113.096 50.8046 112.037 50.4181C110.974 50.0279 110.071 49.465 109.325 48.7221C108.575 47.9827 108 47.0874 107.601 46.034C107.199 44.9771 107 43.802 107 42.5002C107 41.221 107.195 40.0533 107.582 38.989C107.973 37.928 108.543 37.0286 109.302 36.2858C110.056 35.547 110.974 34.9801 112.061 34.5898C113.143 34.1954 114.37 34 115.746 34C116.875 34 117.876 34.1496 118.743 34.4441C119.615 34.7394 120.322 35.1102 120.861 35.5585C121.405 36.0066 121.811 36.4812 122.089 36.9828C122.362 37.4844 122.499 37.928 122.499 38.319C122.499 38.7367 122.339 39.0926 122.022 39.3873C121.705 39.686 121.326 39.831 120.881 39.831C120.638 39.831 120.404 39.7776 120.177 39.663C119.951 39.5518 119.763 39.3947 119.611 39.1959C119.189 38.5528 118.837 38.0661 118.547 37.7371C118.255 37.4115 117.864 37.1319 117.375 36.9101C116.883 36.6842 116.254 36.573 115.492 36.573C114.706 36.573 114.003 36.7071 113.385 36.9713C112.768 37.2355 112.24 37.622 111.803 38.1275C111.365 38.629 111.029 39.2497 110.795 39.9805C110.564 40.7159 110.446 41.5275 110.446 42.416C110.446 44.3453 110.9 45.8276 111.803 46.869C112.705 47.9065 113.968 48.427 115.582 48.427C116.367 48.427 117.106 48.3278 117.797 48.1249C118.389 47.9499 118.993 47.7131 119.6 47.4115V47.3935V44.9985C118.79 44.8713 118.171 44.1834 118.171 43.3538C118.171 42.434 118.932 41.6881 119.871 41.6881L121.206 41.6906L121.3 41.6881L121.4 41.6912H121.404V41.6915L121.445 41.6946L121.474 41.697L121.487 41.6986L121.517 41.7016L121.528 41.703L121.532 41.704L121.568 41.709L121.601 41.7145L121.609 41.7155L121.643 41.7226L121.649 41.7234L121.684 41.731L121.689 41.732L121.725 41.7409L121.728 41.742L121.766 41.7514L121.767 41.7519L121.806 41.7634L121.844 41.7754L121.845 41.7759L121.882 41.7883L121.885 41.7893L121.919 41.8023L121.923 41.8037L121.956 41.8173L121.962 41.8192L121.993 41.8327L122 41.8356L122.029 41.8492L122.037 41.8526L122.065 41.8661L122.074 41.8706L122.1 41.8835L122.111 41.8895L122.134 41.9025L122.169 41.9219L122.182 41.9294L122.202 41.9418L122.217 41.9504L122.236 41.9627L122.25 41.9728L122.268 41.9847L122.284 41.9952L122.3 42.0072L122.318 42.0192L122.332 42.0301L122.35 42.0435L122.363 42.0535L122.382 42.0686L122.393 42.0785L122.413 42.0945L122.423 42.1034L122.443 42.1209L122.452 42.1288L122.473 42.1483L122.48 42.1552L122.502 42.1761L122.509 42.1827L122.531 42.2046L122.536 42.2101L122.559 42.234L122.563 42.2386L122.586 42.264L122.588 42.2669L122.612 42.2943L122.614 42.2969L122.638 42.3252L122.639 42.3267L122.663 42.3571L122.686 42.388L122.687 42.3895L122.708 42.4199L122.71 42.4225L122.73 42.4523L122.732 42.4559L122.751 42.4853L122.754 42.4902L122.772 42.5182L122.775 42.5247L122.791 42.5521L122.795 42.5595L122.809 42.586L122.814 42.5954L122.828 42.6209L122.833 42.6319L122.844 42.6563L122.85 42.6683L122.861 42.6916L122.867 42.7057L122.876 42.7276L122.883 42.7431L122.891 42.764L122.897 42.7814L122.904 42.8009L122.911 42.8193L122.917 42.8383L122.924 42.8587L122.929 42.8762L122.936 42.8976L122.94 42.9141L122.947 42.9374L122.951 42.9524L122.957 42.9779L122.965 43.0182L122.968 43.0302L122.974 43.0591L122.976 43.0695L122.981 43.1004L122.982 43.1095L122.987 43.1419L122.988 43.1493L122.991 43.1833L122.992 43.1898L122.995 43.2256L122.996 43.2306L122.998 43.268V43.2715L122.999 43.3109L123 43.3129V43.3538V43.3577V43.3612V43.3642V43.3682V43.3716V43.3752V43.3787V43.3822V43.3857V43.3891V43.3931V43.3967V43.3996V43.4035V43.4071V43.4106V43.4145V43.4176V43.421V43.425V43.4286V43.432V43.4355V43.439V43.4425V43.446V43.45V43.4529V43.4565V43.4605V43.4639V43.467V43.5811V47.1905Z" fill="#040307"/>
<path id="path48" fill-rule="evenodd" clip-rule="evenodd" d="M123 47.1905V47.3935C123 47.4813 122.993 47.567 122.98 47.6513C122.96 47.8626 122.925 48.0446 122.875 48.1937C122.791 48.4454 122.637 48.6723 122.41 48.8712C122.183 49.0746 121.894 49.2695 121.543 49.457C120.531 49.9934 119.568 50.3838 118.63 50.6326C117.692 50.8773 116.668 51 115.562 51C114.273 51 113.096 50.8046 112.037 50.4181C110.974 50.0279 110.071 49.465 109.325 48.7221C108.575 47.9827 108 47.0874 107.601 46.034C107.199 44.9771 107 43.802 107 42.5002C107 41.221 107.195 40.0533 107.582 38.989C107.973 37.928 108.543 37.0286 109.302 36.2858C110.056 35.547 110.974 34.9801 112.061 34.5898C113.143 34.1954 114.37 34 115.746 34C116.875 34 117.876 34.1496 118.743 34.4441C119.615 34.7394 120.322 35.1102 120.861 35.5585C121.405 36.0066 121.811 36.4812 122.089 36.9828C122.362 37.4844 122.499 37.928 122.499 38.319C122.499 38.7367 122.339 39.0926 122.022 39.3873C121.705 39.686 121.326 39.831 120.881 39.831C120.638 39.831 120.404 39.7776 120.177 39.663C119.951 39.5518 119.763 39.3947 119.611 39.1959C119.189 38.5528 118.837 38.0661 118.547 37.7371C118.255 37.4115 117.864 37.1319 117.375 36.9101C116.883 36.6842 116.254 36.573 115.492 36.573C114.706 36.573 114.003 36.7071 113.385 36.9713C112.768 37.2355 112.24 37.622 111.803 38.1275C111.365 38.629 111.029 39.2497 110.795 39.9805C110.564 40.7159 110.446 41.5275 110.446 42.416C110.446 44.3453 110.9 45.8276 111.803 46.869C112.705 47.9065 113.968 48.427 115.582 48.427C116.367 48.427 117.106 48.3278 117.797 48.1249C118.389 47.9499 118.993 47.7131 119.6 47.4115V47.3935V44.9985C118.79 44.8713 118.171 44.1834 118.171 43.3538C118.171 42.434 118.932 41.6881 119.871 41.6881L121.206 41.6906L121.3 41.6881L121.4 41.6912H121.404V41.6915L121.445 41.6946L121.474 41.697L121.487 41.6986L121.517 41.7016L121.528 41.703L121.532 41.704L121.568 41.709L121.601 41.7145L121.609 41.7155L121.643 41.7226L121.649 41.7234L121.684 41.731L121.689 41.732L121.725 41.7409L121.728 41.742L121.766 41.7514L121.767 41.7519L121.806 41.7634L121.844 41.7754L121.845 41.7759L121.882 41.7883L121.885 41.7893L121.919 41.8023L121.923 41.8037L121.956 41.8173L121.962 41.8192L121.993 41.8327L122 41.8356L122.029 41.8492L122.037 41.8526L122.065 41.8661L122.074 41.8706L122.1 41.8835L122.111 41.8895L122.134 41.9025L122.169 41.9219L122.182 41.9294L122.202 41.9418L122.217 41.9504L122.236 41.9627L122.25 41.9728L122.268 41.9847L122.284 41.9952L122.3 42.0072L122.318 42.0192L122.332 42.0301L122.35 42.0435L122.363 42.0535L122.382 42.0686L122.393 42.0785L122.413 42.0945L122.423 42.1034L122.443 42.1209L122.452 42.1288L122.473 42.1483L122.48 42.1552L122.502 42.1761L122.509 42.1827L122.531 42.2046L122.536 42.2101L122.559 42.234L122.563 42.2386L122.586 42.264L122.588 42.2669L122.612 42.2943L122.614 42.2969L122.638 42.3252L122.639 42.3267L122.663 42.3571L122.686 42.388L122.687 42.3895L122.708 42.4199L122.71 42.4225L122.73 42.4523L122.732 42.4559L122.751 42.4853L122.754 42.4902L122.772 42.5182L122.775 42.5247L122.791 42.5521L122.795 42.5595L122.809 42.586L122.814 42.5954L122.828 42.6209L122.833 42.6319L122.844 42.6563L122.85 42.6683L122.861 42.6916L122.867 42.7057L122.876 42.7276L122.883 42.7431L122.891 42.764L122.897 42.7814L122.904 42.8009L122.911 42.8193L122.917 42.8383L122.924 42.8587L122.929 42.8762L122.936 42.8976L122.94 42.9141L122.947 42.9374L122.951 42.9524L122.957 42.9779L122.965 43.0182L122.968 43.0302L122.974 43.0591L122.976 43.0695L122.981 43.1004L122.982 43.1095L122.987 43.1419L122.988 43.1493L122.991 43.1833L122.992 43.1898L122.995 43.2256L122.996 43.2306L122.998 43.268V43.2715L122.999 43.3109L123 43.3129V43.3538V43.3577V43.3612V43.3642V43.3682V43.3716V43.3752V43.3787V43.3822V43.3857V43.3891V43.3931V43.3967V43.3996V43.4035V43.4071V43.4106V43.4145V43.4176V43.421V43.425V43.4286V43.432V43.4355V43.439V43.4425V43.446V43.45V43.4529V43.4565V43.4605V43.4639V43.467V43.5811V47.1905ZM122.349 47.2101V43.3538H122.351V43.3394L122.351 43.3334L122.35 43.3028H122.349L122.348 43.2845L122.348 43.278H122.347L122.347 43.273H122.347L122.347 43.2715V43.268H122.347V43.2655H122.348V43.262H122.346L122.345 43.256V43.2505L122.344 43.2351L122.343 43.2316V43.2306L122.341 43.2167H122.342L122.34 43.2032V43.2027H122.34L122.335 43.1768H122.334L122.332 43.1663H122.333L122.332 43.1623H122.332L122.329 43.1503L122.321 43.1095H122.321L122.319 43.1015L122.317 43.0935L122.313 43.074L122.31 43.0695L122.308 43.0641L122.303 43.0481H122.303V43.0476H122.304L122.3 43.0347L122.299 43.0352L122.298 43.0316L122.291 43.0133V43.0083L122.291 43.0073L122.289 43.0083L122.282 42.9908V42.9884L122.278 42.9774L122.277 42.9779L122.271 42.962H122.272L122.269 42.9549V42.9524L122.268 42.951L122.268 42.9515L122.258 42.9295L122.257 42.9304L122.245 42.9061V42.9026L122.237 42.8872L122.234 42.8801L122.226 42.8657V42.8662L122.21 42.8388L122.209 42.8352L122.208 42.8343L122.204 42.8292L122.202 42.8247L122.197 42.8168H122.198L122.186 42.7994L122.181 42.7914L122.181 42.792L122.179 42.7894L122.174 42.7814L122.162 42.7654L122.162 42.7645L122.146 42.7436L122.122 42.7131L122.121 42.7107L122.119 42.7081L122.103 42.6902L122.102 42.6907L122.1 42.6877V42.6861L122.095 42.6812L122.095 42.6807L122.081 42.6647L122.08 42.6652L122.06 42.6438L122.055 42.6383L122.056 42.6378L122.05 42.6328L122.031 42.6144L122.03 42.6139L122.02 42.6064L122.013 42.5995L122.013 42.599L122.011 42.5964L122.011 42.5969L121.991 42.5794V42.5791L121.973 42.5645L121.966 42.5595L121.954 42.5496V42.5491L121.94 42.5386L121.935 42.5336L121.924 42.5257L121.919 42.5221L121.919 42.5227L121.902 42.5112L121.903 42.5098L121.9 42.5077L121.899 42.5082L121.882 42.4962L121.882 42.4957L121.879 42.4938H121.876H121.874L121.856 42.4818L121.856 42.4813L121.845 42.4753L121.843 42.4729L121.842 42.4724L121.817 42.4583H121.816L121.793 42.4454L121.793 42.4439L121.782 42.4384L121.774 42.4345L121.77 42.4324V42.4334L121.762 42.43L121.754 42.425L121.739 42.418L121.731 42.416L121.7 42.4026L121.68 42.394L121.663 42.3895L121.632 42.3786L121.61 42.3717L121.572 42.3602L121.562 42.3576L121.552 42.3542H121.552L121.532 42.3502H121.531L121.526 42.3492L121.518 42.3472V42.3482L121.484 42.3417L121.485 42.3407L121.482 42.3401V42.3393L121.472 42.3377L121.471 42.3398L121.435 42.3343L121.43 42.3327L121.415 42.3317H121.413L121.4 42.3302V42.3293H121.4V42.3302L121.358 42.3273L121.331 42.3252L121.299 42.3242L121.224 42.3262H121.206L119.871 42.3238V42.3262C119.58 42.3262 119.317 42.441 119.128 42.6259C118.939 42.8113 118.822 43.069 118.822 43.3538C118.822 43.6109 118.916 43.8444 119.07 44.0218C119.227 44.2028 119.45 44.3309 119.702 44.3703L120.252 44.4565V44.9985V47.3935H120.249V47.399L120.257 47.7978L119.893 47.9798C119.569 48.1409 119.252 48.2819 118.944 48.4035H118.942C118.617 48.5322 118.296 48.6433 117.983 48.7356C117.611 48.8447 117.22 48.9271 116.814 48.9823C116.407 49.0377 115.997 49.0652 115.582 49.0652C114.692 49.0652 113.888 48.9176 113.173 48.6229C112.448 48.3238 111.826 47.8765 111.308 47.2828L111.306 47.2803C110.797 46.6925 110.415 45.9846 110.163 45.1575C109.918 44.3549 109.795 43.4406 109.795 42.416C109.795 41.9509 109.827 41.4982 109.89 41.0575C109.952 40.6172 110.047 40.1955 110.174 39.7936V39.7911C110.301 39.3918 110.462 39.0154 110.651 38.6664C110.841 38.3169 111.061 37.9983 111.306 37.7167L111.306 37.7162C111.559 37.424 111.838 37.1672 112.139 36.9469H112.141C112.443 36.726 112.772 36.539 113.126 36.3881C113.481 36.2359 113.858 36.1213 114.255 36.047C114.648 35.9722 115.061 35.9348 115.492 35.9348C115.902 35.9348 116.29 35.9673 116.649 36.0311C117.017 36.0964 117.351 36.1971 117.647 36.3327L117.647 36.3311C117.924 36.4574 118.179 36.6029 118.41 36.7655C118.646 36.9324 118.855 37.1175 119.033 37.3153L119.039 37.3203C119.197 37.5003 119.37 37.7211 119.559 37.9793C119.742 38.2317 119.939 38.5188 120.149 38.8384C120.189 38.8868 120.234 38.9326 120.283 38.9739H120.284C120.339 39.0189 120.4 39.0592 120.468 39.0921L120.475 39.0971C120.544 39.1321 120.61 39.157 120.674 39.1719H120.676C120.736 39.1859 120.805 39.1928 120.881 39.1928C121.021 39.1928 121.148 39.1714 121.261 39.128C121.373 39.0847 121.477 39.0178 121.572 38.9286L121.574 38.9261C121.67 38.8369 121.74 38.7422 121.784 38.644C121.826 38.5497 121.847 38.4411 121.847 38.319C121.847 38.1858 121.823 38.0382 121.773 37.8767V37.8742C121.716 37.6892 121.631 37.4928 121.518 37.2859L121.516 37.2869C121.395 37.0665 121.248 36.8567 121.078 36.6593C120.898 36.4498 120.687 36.245 120.444 36.0445H120.441C120.206 35.8496 119.932 35.6691 119.62 35.5051L119.621 35.5041C119.298 35.3346 118.934 35.1811 118.532 35.0454C118.141 34.9128 117.711 34.8106 117.243 34.7418C116.779 34.6735 116.279 34.6381 115.746 34.6381C115.086 34.6381 114.469 34.684 113.898 34.7752C113.324 34.867 112.786 35.0041 112.287 35.1855L112.284 35.188C111.782 35.3684 111.322 35.5873 110.905 35.8436C110.487 36.1009 110.105 36.399 109.761 36.7355C109.419 37.0715 109.116 37.445 108.856 37.8543C108.594 38.2665 108.373 38.7163 108.194 39.2009H108.195C108.014 39.7009 107.877 40.2229 107.787 40.7662C107.697 41.3097 107.651 41.888 107.651 42.5002C107.651 43.1215 107.698 43.7067 107.791 44.2542C107.884 44.8055 108.024 45.325 108.21 45.8122H108.212C108.398 46.3031 108.621 46.7519 108.881 47.1572C109.142 47.5645 109.444 47.9379 109.786 48.2735L109.788 48.2759C110.128 48.6145 110.502 48.9111 110.911 49.1664C111.323 49.424 111.774 49.6429 112.263 49.8224C112.752 50.0004 113.272 50.136 113.822 50.2263C114.368 50.3165 114.949 50.3619 115.562 50.3619C116.091 50.3619 116.597 50.3329 117.081 50.2751C117.566 50.2167 118.027 50.131 118.462 50.0174V50.0169C118.91 49.8982 119.36 49.7472 119.811 49.5642C120.269 49.3792 120.744 49.1564 121.234 48.8967L121.235 48.8971C121.389 48.8149 121.53 48.7306 121.654 48.6464L121.657 48.6438C121.782 48.5596 121.888 48.4788 121.973 48.403L121.975 48.398C122.05 48.3318 122.112 48.2649 122.156 48.1992C122.2 48.1364 122.233 48.068 122.257 47.9968L122.258 47.9973C122.273 47.9499 122.288 47.893 122.3 47.8273C122.315 47.7489 122.327 47.6707 122.334 47.594L122.339 47.554L122.346 47.4763L122.349 47.3935V47.2295V47.2101Z" fill="#040307"/>
<path id="path50" fill-rule="evenodd" clip-rule="evenodd" d="M86.5003 46C87.3288 46 88 46.6716 88 47.4999C88 48.3288 87.3288 49 86.5003 49C85.6713 49 85 48.3288 85 47.4999C85 46.6716 85.6713 46 86.5003 46Z" fill="#62CED6"/>
<path id="path52" fill-rule="evenodd" clip-rule="evenodd" d="M86.5003 46C87.3288 46 88 46.6716 88 47.4999C88 48.3288 87.3288 49 86.5003 49C85.6713 49 85 48.3288 85 47.4999C85 46.6716 85.6713 46 86.5003 46ZM87.1559 46.8444L87.1545 46.8454C86.9875 46.6784 86.7553 46.5752 86.5003 46.5752C86.2434 46.5752 86.0113 46.6784 85.8442 46.8444C85.678 47.0115 85.5748 47.2436 85.5748 47.4999C85.5748 47.7554 85.678 47.9876 85.8455 48.1546L85.8442 48.1556C86.0113 48.3221 86.2434 48.4253 86.5003 48.4253C86.7553 48.4253 86.9875 48.3221 87.1545 48.1546C87.322 47.9876 87.4252 47.7554 87.4252 47.4999C87.4252 47.2436 87.322 47.0115 87.1559 46.8444Z" fill="#62CED6"/>
<path id="path54" fill-rule="evenodd" clip-rule="evenodd" d="M73.4998 11C74.3287 11 75 11.6717 75 12.5C75 13.3283 74.3287 14 73.4998 14C72.6713 14 72 13.3283 72 12.5C72 11.6717 72.6713 11 73.4998 11Z" fill="#FFC401"/>
<path id="path56" fill-rule="evenodd" clip-rule="evenodd" d="M73.4998 11C74.3287 11 75 11.6717 75 12.5C75 13.3283 74.3287 14 73.4998 14C72.6713 14 72 13.3283 72 12.5C72 11.6717 72.6713 11 73.4998 11ZM74.1544 11.8455C73.9874 11.6783 73.7553 11.5747 73.4998 11.5747C73.2433 11.5747 73.0112 11.678 72.8442 11.8445L72.8455 11.8455C72.678 12.0129 72.5748 12.2445 72.5748 12.5C72.5748 12.7563 72.678 12.9889 72.8442 13.1555C73.0112 13.322 73.2433 13.4253 73.4998 13.4253C73.7553 13.4253 73.9874 13.3215 74.1544 13.1545L74.1558 13.1555C74.3219 12.9889 74.4252 12.7563 74.4252 12.5C74.4252 12.2445 74.3219 12.0129 74.1544 11.8455Z" fill="#FFC401"/>
<path id="path58" d="M66.4161 14.3314V17.3909H73.2208C73.2628 17.3879 73.3036 17.3864 73.346 17.3864C74.2367 17.3864 74.9678 18.051 75.0464 18.8996L75.048 18.9164L75.0496 18.9329L75.0506 18.9493L75.052 18.9663L75.0526 18.9838L75.0536 19.0008V19.0092V19.0176L75.0541 19.0351V19.0521V19.0696L75.0536 19.0869V19.0934V19.1039L75.0526 19.1209L75.052 19.1343V19.1379L75.0506 19.1548L75.0496 19.1717V19.1747L75.048 19.1887L75.0464 19.2051C74.9723 20.0138 74.3031 20.6554 73.4693 20.7137V20.7222H66.4161V24.6688H74.2919C75.1349 24.6688 75.8354 25.2645 75.9743 26.0477L75.9775 26.0646L75.9805 26.0811V26.0821L75.9831 26.0991L75.9856 26.1165L75.9867 26.1225L75.9882 26.1339L75.9902 26.1519L75.9912 26.1643L75.9923 26.1694L75.9938 26.1873L75.9953 26.2053V26.2063L75.9963 26.2237L75.9974 26.2422L75.9979 26.2487L75.999 26.26L75.9995 26.2916L76 26.297V26.3159V26.3344V26.3528V26.3708L75.9995 26.3777L75.999 26.4062L75.9979 26.4201L75.9974 26.4242L75.9963 26.4415L75.9953 26.459V26.4625L75.9938 26.4765L75.9923 26.494C75.9094 27.339 75.1804 28 74.2919 28H64.708C63.7647 28 63 27.2546 63 26.3344V25.6035V20.7222V17.3909V13.4275V12.6657C63 11.7459 63.7647 11 64.708 11H69.5199C70.4406 11 71.1907 11.7104 71.2264 12.5993L71.2275 12.6228V12.6322L71.228 12.6657L71.2275 12.6991V12.7091L71.2264 12.7319C71.1907 13.6214 70.4406 14.3314 69.5199 14.3314H66.4161Z" fill="#231F20"/>
<path id="path60" fill-rule="evenodd" clip-rule="evenodd" d="M88.5001 25C89.3284 25 90 25.6716 90 26.5001C90 27.3288 89.3284 28 88.5001 28C87.6712 28 87 27.3288 87 26.5001C87 25.6716 87.6712 25 88.5001 25Z" fill="#FFFF01"/>
<path id="path62" fill-rule="evenodd" clip-rule="evenodd" d="M88.5001 25C89.3284 25 90 25.6716 90 26.5001C90 27.3288 89.3284 28 88.5001 28C87.6712 28 87 27.3288 87 26.5001C87 25.6716 87.6712 25 88.5001 25ZM89.1542 25.8454C88.9872 25.6784 88.755 25.5747 88.5001 25.5747C88.2432 25.5747 88.0111 25.6784 87.8441 25.8445L87.8454 25.8454C87.6779 26.0128 87.5747 26.2445 87.5747 26.5001C87.5747 26.7564 87.6779 26.9889 87.8441 27.1555C88.0111 27.3221 88.2432 27.4253 88.5001 27.4253C88.755 27.4253 88.9872 27.3221 89.1542 27.1546L89.1555 27.1555C89.3216 26.9889 89.4249 26.7564 89.4249 26.5001C89.4249 26.2445 89.3216 26.0128 89.1542 25.8454Z" fill="#FFFF01"/>
<path id="path64" d="M113.265 21.2921H118.332L115.776 14.5148L113.265 21.2921ZM121.862 21.4791C121.951 21.68 122 21.9008 122 22.1332C122 23.0515 121.231 23.7958 120.282 23.7958H112.361L111.551 25.9017C111.234 26.7252 110.966 27.2802 110.741 27.5673C110.52 27.855 110.152 28 109.643 28C109.213 28 108.829 27.847 108.497 27.5409C108.166 27.2342 108 26.8858 108 26.4993C108 26.2736 108.039 26.0398 108.114 25.8025C108.193 25.5611 108.32 25.2316 108.497 24.8033L112.834 14.1284C112.96 13.8217 113.107 13.4544 113.28 13.0256C113.454 12.5929 113.64 12.2365 113.838 11.9533C114.035 11.67 114.292 11.4402 114.611 11.2642C114.931 11.0878 115.326 11 115.796 11C116.278 11 116.677 11.0878 116.997 11.2642C117.317 11.4402 117.574 11.6661 117.771 11.9418C117.969 12.2174 118.135 12.5161 118.269 12.8342C118.403 13.1517 118.564 13.5824 118.782 14.1055L121.862 21.4791Z" fill="#231F20"/>
<path id="path66" d="M95.3285 13.0216V18.7879L98.8558 15.105C99.1258 14.8059 99.5164 14.6185 99.9508 14.6185C100.767 14.6185 101.427 15.279 101.427 16.0952C101.427 16.5568 101.216 16.9682 100.885 17.2394L100.352 17.7274L105.013 24.4125C105.342 24.8757 105.59 25.2819 105.755 25.6299C105.92 25.9744 106 26.3154 106 26.6445C106 27.0085 105.854 27.326 105.568 27.5982C105.281 27.8664 104.891 28 104.397 28C103.933 28 103.555 27.9008 103.264 27.7013C102.973 27.5065 102.728 27.2418 102.526 26.9127C102.323 26.5837 102.143 26.2851 101.986 26.0168L98.0526 19.9594L95.3285 22.5708V25.971C95.3285 26.6599 95.1717 27.1694 94.8578 27.5025C94.5439 27.8355 94.1388 28 93.6491 28C93.3616 28 93.0901 27.9233 92.83 27.7742C92.566 27.6252 92.3672 27.4257 92.2257 27.1694C92.1186 26.9625 92.0569 26.7177 92.0344 26.442C92.011 26.1664 92 25.7641 92 25.2436V13.0177C92 12.3441 92.149 11.8426 92.4435 11.5055C92.7383 11.1685 93.1399 11 93.6491 11C94.1462 11 94.5518 11.1645 94.8617 11.498C95.1717 11.8311 95.3285 12.3401 95.3285 13.0216Z" fill="#231F20"/>
<path id="path68" d="M55.863 15.8434C55.863 14.4883 54.1693 14.3314 52.5118 14.3314H49.4119V17.3909H52.5118C54.1627 17.3909 55.863 17.2269 55.863 15.8434ZM52.5118 24.6688C53.504 24.6688 56.5411 24.77 56.5411 22.7852C56.5411 20.7202 53.9733 20.7222 52.5118 20.7222H49.4119V24.6688H52.5118ZM52.5118 28H47.7059C46.7638 28 46 27.2546 46 26.3344V25.7167V25.6838V19.0566V13.3167V13.2829V12.6941L46.0005 12.6796L46 12.6657C46 11.7459 46.7638 11 47.7059 11H52.5118C54.8734 11 58.0505 11.6033 58.9645 14.0401C59.1254 14.4729 59.2076 14.9246 59.2076 15.4032C59.2076 17.0499 58.3645 18.2554 56.6785 19.0176C58.894 19.7067 60 21.0432 60 23.034C60 23.9528 59.757 24.7839 59.2744 25.5193C57.9877 27.491 54.7091 28 52.5118 28Z" fill="#231F20"/>
<path id="path70" fill-rule="evenodd" clip-rule="evenodd" d="M103.5 11C104.328 11 105 11.6717 105 12.5C105 13.3283 104.328 14 103.5 14C102.671 14 102 13.3283 102 12.5C102 11.6717 102.671 11 103.5 11Z" fill="#D1FF27"/>
<path id="path72" fill-rule="evenodd" clip-rule="evenodd" d="M103.5 11C104.328 11 105 11.6717 105 12.5C105 13.3283 104.328 14 103.5 14C102.671 14 102 13.3283 102 12.5C102 11.6717 102.671 11 103.5 11ZM104.154 11.8455C103.987 11.6783 103.755 11.5747 103.5 11.5747C103.243 11.5747 103.011 11.678 102.844 11.8445L102.845 11.8455C102.678 12.0129 102.575 12.2445 102.575 12.5C102.575 12.7563 102.678 12.9889 102.844 13.1555C103.011 13.322 103.243 13.4253 103.5 13.4253C103.755 13.4253 103.987 13.3215 104.154 13.1545L104.156 13.1555C104.322 12.9889 104.425 12.7563 104.425 12.5C104.425 12.2445 104.322 12.0129 104.154 11.8455Z" fill="#D1FF27"/>
<path id="path74" fill-rule="evenodd" clip-rule="evenodd" d="M121.5 25C122.329 25 123 25.6716 123 26.5001C123 27.3288 122.329 28 121.5 28C120.671 28 120 27.3288 120 26.5001C120 25.6716 120.671 25 121.5 25Z" fill="#62CED6"/>
<path id="path76" fill-rule="evenodd" clip-rule="evenodd" d="M121.5 25C122.329 25 123 25.6716 123 26.5001C123 27.3288 122.329 28 121.5 28C120.671 28 120 27.3288 120 26.5001C120 25.6716 120.671 25 121.5 25ZM122.154 25.8454C121.987 25.6784 121.755 25.5747 121.5 25.5747C121.243 25.5747 121.011 25.6784 120.844 25.8445L120.846 25.8454C120.678 26.0128 120.575 26.2445 120.575 26.5001C120.575 26.7564 120.678 26.9889 120.844 27.1555C121.011 27.3221 121.243 27.4253 121.5 27.4253C121.755 27.4253 121.987 27.3221 122.154 27.1546L122.156 27.1555C122.322 26.9889 122.425 26.7564 122.425 26.5001C122.425 26.2445 122.322 26.0128 122.154 25.8454Z" fill="#62CED6"/>
<path id="path78" fill-rule="evenodd" clip-rule="evenodd" d="M79.6168 28C78.724 28 78 27.2546 78 26.3344C78 26.2492 78.0063 26.1653 78.0183 26.0837C78.0063 25.9579 78 25.8248 78 25.6838V13.0177C78 12.3476 78.1485 11.8426 78.4423 11.5055C78.7355 11.1685 79.1223 11 79.6018 11C80.0847 11 80.4792 11.1645 80.7801 11.498C81.0806 11.8311 81.2332 12.3401 81.2332 13.0177V24.6688H83.3755C84.2034 24.6688 84.8863 25.3098 84.9812 26.137C84.9932 26.2122 85 26.2895 85 26.3688C85 26.5532 84.9647 26.7287 84.9008 26.8892C84.6786 27.5363 84.08 28 83.3755 28H79.6168Z" fill="#231F20"/>
<path id="path80" fill-rule="evenodd" clip-rule="evenodd" d="M79.6168 28C78.724 28 78 27.2546 78 26.3344C78 26.2492 78.0063 26.1653 78.0183 26.0837C78.0063 25.9579 78 25.8248 78 25.6838V13.0177C78 12.3476 78.1485 11.8426 78.4423 11.5055C78.7355 11.1685 79.1223 11 79.6018 11C80.0847 11 80.4792 11.1645 80.7801 11.498C81.0806 11.8311 81.2332 12.3401 81.2332 13.0177V24.6688H83.3755C84.2034 24.6688 84.8863 25.3098 84.9812 26.137C84.9932 26.2122 85 26.2895 85 26.3688C85 26.5532 84.9647 26.7287 84.9008 26.8892C84.6786 27.5363 84.08 28 83.3755 28H79.6168ZM78.9103 27.0623C79.0903 27.2472 79.3404 27.3619 79.6168 27.3619H83.3755C83.5908 27.3619 83.7901 27.2926 83.9523 27.1745C84.1183 27.0532 84.248 26.8798 84.3171 26.6774L84.3298 26.6494C84.3438 26.6136 84.3573 26.5672 84.3674 26.5124H84.3679C84.3757 26.4685 84.3806 26.4201 84.3806 26.3688L84.3781 26.3055L84.3714 26.2441L84.3666 26.2118C84.337 25.9545 84.2156 25.7262 84.0389 25.5641C83.8642 25.4045 83.6314 25.3069 83.3755 25.3069H81.2332H80.6137V24.6688V13.0177C80.6137 12.7389 80.5856 12.5046 80.529 12.3162V12.3137C80.4825 12.1562 80.4143 12.0286 80.3272 11.9318C80.2381 11.833 80.1375 11.7598 80.0261 11.7129C79.9081 11.663 79.7664 11.6381 79.6018 11.6381C79.4421 11.6381 79.3046 11.663 79.1919 11.7119C79.084 11.7593 78.9867 11.8321 78.902 11.9293C78.8188 12.025 78.752 12.1567 78.7037 12.3221L78.7027 12.3217C78.6475 12.5121 78.6194 12.7449 78.6194 13.0177V25.6838L78.6218 25.8598C78.6243 25.9205 78.6286 25.9764 78.6329 26.0243L78.6306 26.1789C78.6267 26.2063 78.6228 26.2327 78.6218 26.2551L78.6194 26.3344C78.6194 26.6191 78.7307 26.8772 78.9103 27.0623Z" fill="#231F20"/>
</g>
</g>
</g>
</svg>
